<?xml version="1.0" encoding="UTF-8" standalone="no"?>
<!DOCTYPE svg PUBLIC "-//W3C//DTD SVG 1.1//EN"
 "http://www.w3.org/Graphics/SVG/1.1/DTD/svg11.dtd">
<!-- Generated by graphviz version 2.43.0 (0)
 -->
<!-- Title: g Pages: 1 -->
<svg width="298pt" height="377pt"
 viewBox="0.00 0.00 298.37 376.86" xmlns="http://www.w3.org/2000/svg" xmlns:xlink="http://www.w3.org/1999/xlink">
<g id="graph0" class="graph" transform="scale(1 1) rotate(0) translate(4 372.86)">
<title>g</title>
<polygon fill="white" stroke="transparent" points="-4,4 -4,-372.86 294.37,-372.86 294.37,4 -4,4"/>
<!-- AEON -->
<g id="node1" class="node">
<title>AEON</title>
<polygon fill="none" stroke="black" points="171.37,-368.86 111.37,-368.86 111.37,-332.86 171.37,-332.86 171.37,-368.86"/>
<text text-anchor="start" x="119.37" y="-347.16" font-family="Times,serif" font-size="14.00">AEON</text>
</g>
<!-- visualExploration -->
<g id="node2" class="node">
<title>visualExploration</title>
<ellipse fill="none" stroke="black" cx="76.37" cy="-259.38" rx="76.24" ry="37.45"/>
<text text-anchor="start" x="30.37" y="-270.68" font-family="Times,serif" font-size="14.00">1: intelligent</text>
<text text-anchor="start" x="54.87" y="-255.68" font-family="Times,serif" font-size="14.00">visual</text>
<text text-anchor="start" x="35.37" y="-240.68" font-family="Times,serif" font-size="14.00">exploration</text>
</g>
<!-- AEON&#45;&gt;visualExploration -->
<g id="edge1" class="edge">
<title>AEON&#45;&gt;visualExploration</title>
<path fill="none" stroke="black" d="M128.83,-332.61C122.72,-324.19 115.07,-313.66 107.52,-303.26"/>
<polygon fill="black" stroke="black" points="110.22,-301.03 101.51,-294.99 104.56,-305.14 110.22,-301.03"/>
</g>
<!-- dataAnalysis -->
<g id="node3" class="node">
<title>dataAnalysis</title>
<polygon fill="none" stroke="black" points="244.37,-278.38 170.37,-278.38 170.37,-240.38 244.37,-240.38 244.37,-278.38"/>
<text text-anchor="start" x="191.37" y="-263.18" font-family="Times,serif" font-size="14.00">data</text>
<text text-anchor="start" x="178.37" y="-248.18" font-family="Times,serif" font-size="14.00">analysis</text>
</g>
<!-- AEON&#45;&gt;dataAnalysis -->
<g id="edge2" class="edge">
<title>AEON&#45;&gt;dataAnalysis</title>
<path fill="none" stroke="black" d="M154.09,-332.61C163.67,-319.62 176.98,-301.58 187.9,-286.78"/>
<polygon fill="black" stroke="black" points="190.88,-288.63 194,-278.5 185.25,-284.47 190.88,-288.63"/>
</g>
<!-- offlineML -->
<g id="node4" class="node">
<title>offlineML</title>
<ellipse fill="none" stroke="black" cx="76.37" cy="-148.43" rx="55.72" ry="37.45"/>
<text text-anchor="start" x="44.87" y="-159.73" font-family="Times,serif" font-size="14.00">2: offline</text>
<text text-anchor="start" x="45.87" y="-144.73" font-family="Times,serif" font-size="14.00">machine</text>
<text text-anchor="start" x="46.37" y="-129.73" font-family="Times,serif" font-size="14.00">learning</text>
</g>
<!-- visualExploration&#45;&gt;offlineML -->
<g id="edge3" class="edge">
<title>visualExploration&#45;&gt;offlineML</title>
<path fill="none" stroke="black" d="M76.37,-221.8C76.37,-210.3 76.37,-197.61 76.37,-186.1"/>
</g>
<!-- dataAnalysis&#45;&gt;offlineML -->
<g id="edge4" class="edge">
<title>dataAnalysis&#45;&gt;offlineML</title>
<path fill="none" stroke="black" d="M185.44,-240.15C167.34,-225.09 141.12,-203.28 118.92,-184.82"/>
<polygon fill="black" stroke="black" points="120.88,-181.9 110.95,-178.19 116.4,-187.28 120.88,-181.9"/>
</g>
<!-- realTimeML -->
<g id="node6" class="node">
<title>realTimeML</title>
<ellipse fill="none" stroke="black" cx="220.37" cy="-148.43" rx="70.01" ry="37.45"/>
<text text-anchor="start" x="178.87" y="-159.73" font-family="Times,serif" font-size="14.00">4: real&#45;time</text>
<text text-anchor="start" x="189.87" y="-144.73" font-family="Times,serif" font-size="14.00">machine</text>
<text text-anchor="start" x="190.37" y="-129.73" font-family="Times,serif" font-size="14.00">learning</text>
</g>
<!-- dataAnalysis&#45;&gt;realTimeML -->
<g id="edge6" class="edge">
<title>dataAnalysis&#45;&gt;realTimeML</title>
<path fill="none" stroke="black" d="M209.57,-239.9C211.01,-227.85 212.96,-211.54 214.8,-196.09"/>
<polygon fill="black" stroke="black" points="218.28,-196.46 215.99,-186.11 211.33,-195.63 218.28,-196.46"/>
</g>
<!-- offlineSpikeSorting -->
<g id="node5" class="node">
<title>offlineSpikeSorting</title>
<ellipse fill="none" stroke="black" cx="76.37" cy="-37.48" rx="55.72" ry="37.45"/>
<text text-anchor="start" x="44.87" y="-48.78" font-family="Times,serif" font-size="14.00">3: offline</text>
<text text-anchor="start" x="57.37" y="-33.78" font-family="Times,serif" font-size="14.00">spike</text>
<text text-anchor="start" x="50.37" y="-18.78" font-family="Times,serif" font-size="14.00">sorting</text>
</g>
<!-- offlineSpikeSorting&#45;&gt;offlineML -->
<g id="edge5" class="edge">
<title>offlineSpikeSorting&#45;&gt;offlineML</title>
<path fill="none" stroke="black" d="M76.37,-75.15C76.37,-83.33 76.37,-92.11 76.37,-100.63"/>
<polygon fill="black" stroke="black" points="72.87,-100.85 76.37,-110.85 79.87,-100.85 72.87,-100.85"/>
</g>
<!-- onlineSpikeSorting -->
<g id="node7" class="node">
<title>onlineSpikeSorting</title>
<ellipse fill="none" stroke="black" cx="220.37" cy="-37.48" rx="55.31" ry="37.45"/>
<text text-anchor="start" x="189.37" y="-48.78" font-family="Times,serif" font-size="14.00">5: online</text>
<text text-anchor="start" x="201.37" y="-33.78" font-family="Times,serif" font-size="14.00">spike</text>
<text text-anchor="start" x="194.37" y="-18.78" font-family="Times,serif" font-size="14.00">sorting</text>
</g>
<!-- onlineSpikeSorting&#45;&gt;realTimeML -->
<g id="edge7" class="edge">
<title>onlineSpikeSorting&#45;&gt;realTimeML</title>
<path fill="none" stroke="black" d="M220.37,-75.15C220.37,-83.33 220.37,-92.11 220.37,-100.63"/>
<polygon fill="black" stroke="black" points="216.87,-100.85 220.37,-110.85 223.87,-100.85 216.87,-100.85"/>
</g>
</g>
</svg>
